<?xml version="1.0" encoding="utf-8"?>
<!-- Generator: Adobe Illustrator 21.1.0, SVG Export Plug-In . SVG Version: 6.00 Build 0)  -->
<svg version="1.1" xmlns="http://www.w3.org/2000/svg" xmlns:xlink="http://www.w3.org/1999/xlink" x="0px" y="0px"
	 viewBox="0 0 48 48" style="enable-background:new 0 0 48 48;" xml:space="preserve">	 
<symbol id="on">
	<path d="M24,1C11.3,1,1,11.3,1,24s10.3,23,23,23s23-10.3,23-23S36.7,1,24,1z M24,34c-5.5,0-10-4.5-10-10s4.5-10,10-10s10,4.5,10,10
		S29.5,34,24,34z"/>
</symbol>
<symbol id="off">
	<path d="M24,47C11.3,47,1,36.7,1,24S11.3,1,24,1s23,10.3,23,23S36.7,47,24,47z M24,3C12.4,3,3,12.4,3,24s9.4,21,21,21s21-9.4,21-21
		S35.6,3,24,3z"/>
	<path d="M24,36c-6.6,0-12-5.4-12-12s5.4-12,12-12s12,5.4,12,12S30.6,36,24,36z M24,14c-5.5,0-10,4.5-10,10s4.5,10,10,10
		s10-4.5,10-10S29.5,14,24,14z"/>
</symbol>

<g id="cd-cover">
	<g>
		
			<circle stroke-width="2" stroke-linejoin="round" stroke-miterlimit="10" cx="24" cy="23.5" r="12"/>
		<path stroke-width="2" stroke-linejoin="round" stroke-miterlimit="10" d="M18.0510807,29.4489193
			c-3.2854986-3.2854977-3.2854986-8.6123409,0-11.8978386"/>
		<circle stroke-width="2" stroke-linejoin="round" stroke-miterlimit="10" cx="24" cy="23.5" r="4"/>
		<path stroke-width="2" stroke-linejoin="round" stroke-miterlimit="10" d="M40,41H8
			c-1.1045694,0-2-0.8954315-2-2V9c0-1.1045694,0.8954306-2,2-2h32c1.1045685,0,2,0.8954306,2,2v30
			C42,40.1045685,41.1045685,41,40,41z"/>
	</g>
	<path stroke-width="2" stroke-linejoin="round" stroke-miterlimit="10" d="M41,10h3
		c1.1045685,0,2,0.8954306,2,2v24c0,1.1045685-0.8954315,2-2,2h-3"/>
	<path stroke-width="2" stroke-linejoin="round" stroke-miterlimit="10" d="M7,38H4
		c-1.1045694,0-2-0.8954315-2-2V12c0-1.1045694,0.8954306-2,2-2h3"/>
</g>

</svg>
